<?xml version="1.0" encoding="utf-8"?>
<!-- Generator: Adobe Illustrator 19.2.1, SVG Export Plug-In . SVG Version: 6.00 Build 0)  -->
<svg version="1.1" id="Capa_1" xmlns="http://www.w3.org/2000/svg" xmlns:xlink="http://www.w3.org/1999/xlink" x="0px" y="0px"
	 viewBox="0 0 250 250" style="enable-background:new 0 0 250 250;" xml:space="preserve">
<style type="text/css">
	.st0{fill:#FFFFFF;}
	.st1{fill:#FCEA00;}
	.st2{fill:#681475;}
	.st3{fill:#F1F1F1;}
	.st4{fill:#1F1713;}
	.st5{fill:#C12610;}
	.st6{fill:#6E3885;}
</style>
<g>
	<path class="st1" d="M246.5,125C246.5,57.9,192.1,3.4,125,3.4C57.9,3.4,3.5,57.9,3.5,125c0,67.1,54.4,121.6,121.6,121.6
		C192.1,246.6,246.5,192.1,246.5,125z"/>
	<g>
		<g>
			<path class="st2" d="M138.1,180.7h-7.2l1.4-16.1c0-0.4-0.1-0.7-0.3-1c-0.3-0.3-0.6-0.4-1-0.4c-0.4,0-0.8,0.2-1.1,0.4
				c-0.3,0.3-0.5,0.6-0.5,1l-1.5,17.5c0,0.4,0.1,0.8,0.3,1c0.2,0.3,0.6,0.4,1,0.4h8.6c0.4,0,0.8-0.1,1.1-0.4c0.3-0.3,0.5-0.6,0.5-1
				c0-0.4-0.1-0.7-0.3-1C138.8,180.8,138.5,180.7,138.1,180.7z"/>
			<path class="st2" d="M149.2,163.2h-10.5c-0.4,0-0.8,0.2-1,0.4c-0.3,0.3-0.5,0.6-0.5,1c0,0.4,0.1,0.8,0.3,1c0.3,0.3,0.6,0.4,1,0.4
				h3.8l-1.4,16c0,0.4,0.1,0.8,0.3,1c0.3,0.3,0.6,0.4,1,0.4c0.4,0,0.8-0.1,1.1-0.4c0.3-0.3,0.5-0.6,0.5-1l1.4-16h3.8
				c0.4,0,0.8-0.2,1.1-0.4c0.3-0.3,0.5-0.6,0.5-1c0-0.4-0.1-0.7-0.3-1C150,163.3,149.6,163.2,149.2,163.2z"/>
			<path class="st2" d="M161.1,180.7h-7.8l0.5-6h5c0.4,0,0.7-0.1,1.1-0.4c0.3-0.3,0.5-0.6,0.5-1c0-0.4-0.1-0.7-0.3-1
				c-0.3-0.3-0.6-0.4-1-0.4h-5l0.5-5.7h7.8c0.4,0,0.8-0.2,1.1-0.4c0.3-0.3,0.5-0.6,0.5-1c0-0.4-0.1-0.7-0.3-1
				c-0.3-0.3-0.6-0.4-1-0.4h-9.2c-0.4,0-0.8,0.2-1.1,0.4c-0.3,0.3-0.5,0.6-0.5,1l-1.5,17.5c-0.1,0.4,0.1,0.8,0.3,1
				c0.2,0.3,0.6,0.4,1,0.4h9.2c0.4,0,0.8-0.1,1.1-0.4c0.3-0.3,0.5-0.6,0.5-1c0-0.4-0.1-0.7-0.3-1
				C161.8,180.8,161.5,180.7,161.1,180.7z"/>
		</g>
		<g>
			<path class="st2" d="M82.2,136.9H66.3c-2.3,0-4.2,1.9-4.2,4.2c0,2.3,1.9,4.2,4.2,4.2h15.9c2.3,0,4.2-1.9,4.2-4.2
				C86.3,138.8,84.5,136.9,82.2,136.9z"/>
			<path class="st2" d="M205.5,100c-2.3-2-5.4-2.6-8.6-1.7l-21.4,6.5c-2.6,0.8-4.6,2.4-6.1,4.7c-1.4,2.3-1.8,4.8-1.3,7.3
				c0.6,2.5,2,4.5,4.2,5.6c2.2,1.2,4.7,1.4,7.3,0.6l6.5-2c-0.9,1.8-2.1,3.5-3.4,5c-1.7,2-3.7,3.8-5.9,5.3c-2.2,1.5-4.6,2.6-7.3,3.5
				c-3.4,1-6.7,1.4-10,1.1c-3.3-0.3-6.3-1.2-8.9-2.7c-2.7-1.5-5-3.5-6.9-6c-1.9-2.5-3.3-5.4-4-8.7c-0.8-3.3-0.8-6.6-0.2-9.9
				c0.6-3.3,1.8-6.5,3.5-9.3c1.7-2.8,3.9-5.3,6.6-7.5c5.3-4.2,12.2-6.5,19.8-5.5c3.8,0.5,7.7,2.1,11.7,4.8c3,2,5.7,1.9,7.6,1.5
				c2.5-0.6,4.6-1.9,6.2-4c1.7-2.3,2.4-4.8,2.1-7.3c-0.3-2.3-1.5-4.3-3.3-5.8c-5.1-4.1-11.1-6.8-17.9-8.1c-6.8-1.3-14-0.9-21.2,1.3
				c-6,1.8-11.4,4.7-16.2,8.5c-4.7,3.8-8.7,8.2-11.7,13.3c-3,5-5.1,10.4-6.2,16.2c-0.3,1.7-0.3,3.5-0.5,5.3h-1.9
				c-2.6,0-4.5-2.1-4.3-4.7l2.4-27c0.3-3.1-0.4-6.2-2-8.6c-4.8-7.2-14.8-6.8-20.6-0.9l-1.3,1.3H71.2c-2.3,0-4.2,1.9-4.2,4.2
				c0,2.3,1.9,4.2,4.2,4.2H84l-26.8,27.1H40.4c-2.3,0-4.2,1.9-4.2,4.2c0,2.3,1.9,4.2,4.2,4.2h12.4c-0.2,1.1-0.3,2.3-0.2,3.4
				c0.6,6.6,5.9,11.1,12.3,11.1h28.6l-1.6,18.2c-0.4,4.8,2.7,9.1,7.4,9.6c5.5,0.5,10.5-3.8,11-9.2l1.2-13.9c0.2-2.6,2.5-4.7,5.1-4.7
				h4.4c0.7,0,1.3-0.3,1.9-0.4c1.3,3.5,3,6.7,5.2,9.6c2.3,2.9,5,5.3,7.8,7.4H133c-2.3,0-4.2,1.9-4.2,4.2c0,2.3,1.9,4.2,4.2,4.2h25.9
				c0.7,0,1.3-0.2,1.8-0.5c4.3,0,8.6-0.5,12.9-1.8c5.1-1.6,9.9-3.9,14.3-7c4.3-3.1,8-6.7,11.1-10.8c3.1-4.1,5.5-8.7,7.1-13.5
				c1.7-4.9,2.5-9.9,2.4-15C208.5,104.1,207.4,101.8,205.5,100z M95.1,111.3c0,0.5-0.5,0.8-0.9,0.8H79.6c-0.7,0-1.1-0.9-0.5-1.4
				l16-16.2c0.6-0.6,1.5-0.2,1.4,0.6L95.1,111.3z"/>
			<path class="st2" d="M74.5,151.7H32.7c-0.5,0-1.1,0.1-1.5,0.3c1,2.8,2,5.4,3.2,8.1h40.1c2.3,0,4.2-1.9,4.2-4.2
				C78.7,153.6,76.8,151.7,74.5,151.7z"/>
			<path class="st2" d="M66,89.9c0-2.3-1.9-4.2-4.2-4.2H32.9c-1,2.7-2,5.5-2.8,8.3h31.6C64.1,94.1,66,92.2,66,89.9z"/>
		</g>
	</g>
</g>
</svg>
