<?xml version="1.0" encoding="utf-8"?>
<!-- Generator: Adobe Illustrator 19.2.1, SVG Export Plug-In . SVG Version: 6.00 Build 0)  -->
<svg version="1.1" id="Capa_1" xmlns="http://www.w3.org/2000/svg" xmlns:xlink="http://www.w3.org/1999/xlink" x="0px" y="0px"
	 viewBox="0 0 170 170" style="enable-background:new 0 0 170 170;" xml:space="preserve">
<style type="text/css">
	.st0{fill:#FFFFFF;}
	.st1{fill:#FCEA00;}
	.st2{fill:#681475;}
	.st3{fill:#F1F1F1;}
	.st4{fill:#1F1713;}
	.st5{fill:#C12610;}
	.st6{fill:#6E3885;}
</style>
<g>
	<g>
		<circle class="st1" cx="85" cy="85" r="75.3"/>
		<path class="st3" d="M85,9.7c41.6,0,75.3,33.7,75.3,75.3s-33.7,75.3-75.3,75.3S9.7,126.6,9.7,85S43.4,9.7,85,9.7 M85,4.5
			C40.6,4.5,4.5,40.6,4.5,85s36.1,80.5,80.5,80.5c44.4,0,80.5-36.1,80.5-80.5S129.4,4.5,85,4.5L85,4.5z"/>
	</g>
	<path class="st2" d="M69.7,49.5v53c-2.7-2.6-6.5-4.2-10.6-4.2c-8.5,0-15.4,6.9-15.4,15.4c0,8.5,6.9,15.4,15.4,15.4
		c8.5,0,15.4-6.9,15.4-15.4c0,0,0,0,0,0l0-1.6V69.4l39.9-8.8v31.3c-2.7-2.6-6.5-4.2-10.6-4.2c-8.5,0-15.4,6.9-15.4,15.4
		c0,8.5,6.9,15.4,15.4,15.4c8.5,0,15.4-6.9,15.4-15.4l0-1.1V59.4V39.6L69.7,49.5z"/>
</g>
</svg>
