<?xml version="1.0" encoding="utf-8"?>
<!-- Generator: Adobe Illustrator 19.2.1, SVG Export Plug-In . SVG Version: 6.00 Build 0)  -->
<svg version="1.1" id="Capa_1" xmlns="http://www.w3.org/2000/svg" xmlns:xlink="http://www.w3.org/1999/xlink" x="0px" y="0px"
	 viewBox="0 0 630 370" style="enable-background:new 0 0 630 370;" xml:space="preserve">
<style type="text/css">
	.st0{fill:#FFFFFF;}
	.st1{fill:#FCEA00;}
	.st2{fill:#681475;}
	.st3{fill:#F1F1F1;}
	.st4{fill:#1F1713;}
	.st5{fill:#C12610;}
	.st6{fill:#6E3885;}
</style>
<g>
	<g>
		<g>
			<g>
				<g>
					<path class="st1" d="M626.5,138.6c0-74-60-133.9-133.9-133.9c-74,0-133.9,59.9-133.9,133.9c0,74,59.9,133.9,133.9,133.9
						C566.5,272.5,626.5,212.5,626.5,138.6z"/>
					<g>
						<path class="st4" d="M432,130.6c-1-3.9-2.6-7.3-4.8-10.3c-2.2-3-5.1-5.5-8.6-7.3c-3.5-1.8-7.6-2.7-12.1-2.7
							c-4.1,0-7.9,0.7-11.3,2.2c-3.4,1.5-6.4,3.5-8.8,6.1c-2.5,2.6-4.4,5.6-5.7,9.1c-1.4,3.5-2,7.3-2,11.3c0,4.2,0.6,8,1.9,11.5
							c1.3,3.5,3.2,6.5,5.6,9.1c2.4,2.6,5.4,4.5,8.8,5.9c3.5,1.4,7.3,2,11.6,2c6.1,0,11.4-1.4,15.8-4.2c2.2-1.4,4.2-3.3,5.8-5.7
							c1.6-2.3,3-5.1,4-8.4l0.4-1.1c0,0,0.2-0.5-0.4-0.5c-0.5,0-11.2,0-14,0c-0.7,0-0.8,0.4-0.8,0.4l-0.1,0.5
							c-0.2,0.6-0.5,1.2-1.1,1.9c-0.6,0.7-1.3,1.3-2.3,2c-1.8,1.3-4.1,1.9-6.8,1.9c-1.9,0-3.6-0.2-5-0.7c-1.4-0.5-2.5-1.2-3.5-2.1
							c-0.9-0.9-1.6-2.1-2.2-3.6c-0.4-1.2-0.7-2.7-0.9-4.3c0,0,36.3,0,36.9,0c0.6,0,0.6-0.7,0.6-0.7l0.1-0.5c0-0.9,0.1-1.8,0.1-2.7
							C433.1,136.6,432.8,133.5,432,130.6z M397.8,127.1c0.8-1,1.8-1.8,3.2-2.5c1.3-0.7,3-1,5.1-1c1.6,0,3,0.2,4.2,0.6
							c1.1,0.4,2,1,2.7,1.8c1.3,1.4,2.3,3.4,3,6.2h-20.3c0.1-0.6,0.2-1.2,0.4-1.8C396.4,129.2,396.9,128.1,397.8,127.1z"/>
						<path class="st4" d="M485.4,165.8l-19.8-28.5l17.9-25.5c0,0,0.2-0.3-0.4-0.3c-3.2,0-17.7,0-18.1,0c-0.6,0-0.7,0.3-0.7,0.3
							l-8.1,12.2l-8.2-12.1c0,0-0.3-0.4-0.9-0.4c-3.2,0-18.1,0-18.6,0c-0.5,0-0.3,0.4-0.3,0.4l1.3,1.8l16.6,23.9l-19.3,28.3
							c0,0-0.4,0.5,0.3,0.5c3.2,0,17.5,0,18.1,0c0.7,0,1-0.6,1-0.6l9.7-14.7l9.8,14.7c0,0,0.4,0.6,1,0.6c3.2,0,17.7,0,18.4,0
							C485.8,166.4,485.4,165.8,485.4,165.8z"/>
						<path class="st4" d="M508.3,111.5c-3.3,0-20.2,0-20.9,0c-0.7,0-0.6,0.5-0.6,0.5l3,53.7c0,0,0.1,0.7,0.6,0.7
							c2.8,0,14.2,0,14.8,0c0.6,0,0.6-0.7,0.6-0.7l3-53.6C508.8,112.1,508.8,111.5,508.3,111.5z"/>
						<path class="st4" d="M548,123.9c0,0,0.6,0,0.6-0.7c0-0.6,0-11.1,0-11.1s0-0.5-0.6-0.5c-0.6,0-9.9,0-9.9,0v-15
							c0,0,0.1-0.6-0.6-0.6c-2.9,0-15.4,0-15.9,0c-0.6,0-0.6,0.6-0.6,0.6v15c0,0-7.3,0-8,0c-0.7,0-0.6,0.5-0.6,0.5v11.2
							c0,0-0.1,0.6,0.5,0.6c0.6,0,8.1,0,8.1,0v29.4c0,2.8,0.5,5.1,1.5,7c1,1.8,2.4,3.3,4.1,4.3c1.7,1,3.6,1.6,5.7,1.9
							c2,0.3,4.2,0.5,6.5,0.5c1.5,0,2.9,0,4.4-0.1c1.5-0.1,2.9-0.2,4.2-0.4l0.6-0.1c0,0,0.5,0,0.5-0.7c0-2.5,0-12.2,0-12.8
							c0-0.7-0.6-0.5-0.6-0.5l-1.1,0.2c-0.6,0.1-1.3,0.2-2,0.3c-0.7,0.1-1.4,0.1-2.2,0.1c-1.1,0-2.1-0.1-2.7-0.3
							c-0.7-0.2-1-0.4-1.2-0.6c-0.2-0.1-0.4-0.5-0.5-1.2c-0.2-0.6-0.3-1.5-0.3-2.7v-24.4H548z"/>
						<path class="st4" d="M604.3,127.2c-1.4-3.6-3.3-6.6-5.8-9.2c-2.5-2.5-5.5-4.5-9-5.9c-3.5-1.4-7.4-2.1-11.6-2.1
							c-4.2,0-8.1,0.7-11.6,2.1c-3.5,1.4-6.5,3.3-8.9,5.9c-2.5,2.5-4.4,5.6-5.8,9.2l0,0c-1.3,3.6-2,7.5-2,11.8c0,4.3,0.7,8.2,2,11.8
							c1.3,3.5,3.3,6.6,5.8,9.1c2.5,2.5,5.5,4.5,8.9,5.8c3.5,1.4,7.4,2,11.6,2c4.2,0,8.1-0.7,11.6-2c3.5-1.3,6.5-3.3,9-5.8
							c2.5-2.5,4.4-5.6,5.8-9.1c1.3-3.6,2-7.5,2-11.8C606.3,134.8,605.6,130.8,604.3,127.2z M583.3,153.1c-1.4,0.8-3.2,1.2-5.4,1.2
							c-2.3,0-4-0.4-5.4-1.2c-1.4-0.8-2.5-1.9-3.4-3.3c-0.9-1.4-1.5-3.1-1.9-4.9c-0.4-1.9-0.6-3.8-0.6-5.8c0-2,0.2-3.9,0.6-5.9
							c0.4-1.9,1-3.5,1.9-4.9c0.9-1.4,2-2.5,3.4-3.3c1.3-0.8,3.1-1.3,5.3-1.3c2.2,0,4,0.5,5.4,1.3c1.5,0.9,2.6,2,3.5,3.3
							c0.9,1.4,1.5,3,1.9,4.9c0.4,1.9,0.6,3.9,0.6,5.9c0,2-0.2,3.9-0.6,5.8c-0.4,1.8-1,3.5-1.9,4.9
							C585.9,151.1,584.8,152.2,583.3,153.1z"/>
						<path class="st5" d="M508,179.5c0-5.7-4.6-10.2-10.2-10.2c-5.7,0-10.2,4.6-10.2,10.2c0,5.6,4.6,10.2,10.2,10.2
							C503.4,189.8,508,185.2,508,179.5z"/>
						<g>
							<path d="M408.6,96.3l-8,10.1c0,0-0.5,0.6,0.1,0.6c0.5,0,7.3,0,9.5,0c0.8,0,1.2-0.4,1.2-0.4l13.4-10.3c0,0,0.5-0.4-0.1-0.4
								c-0.6,0-12.3,0-15.2,0C408.8,95.9,408.6,96.3,408.6,96.3z"/>
						</g>
						<g>
							<path class="st4" d="M619.6,116.9c0,1.2-0.3,2.3-0.9,3.3c-0.6,1-1.4,1.9-2.5,2.5c-1,0.6-2.2,0.9-3.4,0.9
								c-1.2,0-2.3-0.3-3.3-0.9c-1.1-0.6-1.9-1.4-2.5-2.5c-0.6-1-0.9-2.2-0.9-3.3c0-1.2,0.3-2.3,0.9-3.4c0.6-1,1.4-1.9,2.5-2.4
								c1-0.6,2.1-0.9,3.3-0.9c1.2,0,2.3,0.3,3.4,0.9c1,0.6,1.9,1.4,2.5,2.4C619.3,114.6,619.6,115.7,619.6,116.9z M618.4,116.9
								c0-1.5-0.5-2.8-1.6-3.9c-1.1-1.1-2.3-1.6-3.8-1.6c-1.5,0-2.8,0.5-3.8,1.6c-1.1,1.1-1.6,2.3-1.6,3.9c0,1.5,0.5,2.8,1.6,3.8
								c1,1,2.3,1.6,3.8,1.6c1.5,0,2.8-0.5,3.8-1.6C617.8,119.7,618.4,118.4,618.4,116.9z M609.9,113.3h3.2c0.9,0,1.5,0.2,2,0.6
								c0.4,0.3,0.6,0.8,0.6,1.5c0,0.5-0.2,0.9-0.5,1.2c-0.3,0.4-0.8,0.6-1.5,0.8c0.3,0.1,0.5,0.2,0.6,0.3c0.2,0.2,0.4,0.4,0.6,0.7
								c0,0,0.4,0.7,1.2,2.1H614c-0.7-1.4-1.1-2.2-1.4-2.4c-0.2-0.3-0.5-0.4-0.7-0.4c-0.1,0-0.1,0-0.2,0v2.8h-1.8V113.3z
								 M611.7,116.4h0.7c0.5,0,0.9-0.1,1.1-0.3c0.2-0.2,0.3-0.4,0.3-0.6c0-0.3-0.1-0.5-0.3-0.6c-0.2-0.2-0.5-0.3-1-0.3h-0.8V116.4z
								"/>
						</g>
					</g>
				</g>
			</g>
			<g>
				<path class="st6" d="M53.2,85.1c-27.5,0-49.7,22.3-49.7,49.8c0,27.5,22.3,49.8,49.7,49.8c27.5,0,49.8-22.3,49.8-49.8
					C103,107.4,80.7,85.1,53.2,85.1z M81.7,122.8c2.3,0,4.1,1.8,4.1,4.1c0,2.3-1.8,4.2-4.1,4.2c-2.3,0-4.1-1.8-4.1-4.2
					C77.5,124.6,79.4,122.8,81.7,122.8z M50.3,102.1c3.5,0,6.4,2.9,6.4,6.4c0,3.6-2.8,6.4-6.4,6.4c-3.5,0-6.4-2.8-6.4-6.4
					C44,105,46.8,102.1,50.3,102.1z M20.9,122.9c1.7,0,3.1,1.4,3.1,3.1c0,1.7-1.4,3.1-3.1,3.1c-1.8,0-3.2-1.4-3.2-3.1
					C17.7,124.3,19.1,122.9,20.9,122.9z M27.8,150.1c0,1.3-1.1,2.3-2.3,2.3H14.7c-1.3,0-2.3-1-2.3-2.3v-25.4c0-1,0.9-1.9,1.9-1.9
					c1,0,1.9,0.9,1.9,1.9v6h9.3c1.3,0,2.3,1.1,2.3,2.3V150.1z M64.6,157.8c0,2.6-2.2,4.7-4.7,4.7H37.9c-2.6,0-4.8-2.1-4.8-4.7v-52
					c0-2.1,1.8-3.9,3.9-3.9c2.1,0,3.8,1.8,3.8,3.9v12.4h19c2.6,0,4.7,2.1,4.7,4.7V157.8z M87.8,162H73.6c-1.7,0-3.1-1.4-3.1-3.1
					v-33.7c0-1.4,1.1-2.5,2.5-2.5c1.4,0,2.5,1.1,2.5,2.5v8h12.3c1.7,0,3.1,1.4,3.1,3v22.6C90.9,160.6,89.5,162,87.8,162z"/>
			</g>
			<g>
				<path class="st6" d="M117.7,112.6h8.3v7.8h0.2c3.9-6,9.9-9.1,17.2-9.1c6.5,0,12.5,2.6,14.7,9.1c3.6-5.7,9.9-9.1,16.7-9.1
					c10.6,0,17.8,4.4,17.8,15.5V166h-8.8v-35c0-6.6-1.8-11.9-10.3-11.9c-8.5,0-13.9,5.4-13.9,13.6V166h-8.8v-35
					c0-6.9-2.2-11.9-10-11.9c-10.4,0-14.2,9.6-14.2,13.6V166h-8.8V112.6z"/>
				<path class="st6" d="M226.3,111.3c16.9,0,25.9,12.3,25.9,28c0,15.6-9,27.9-25.9,27.9c-16.9,0-25.9-12.3-25.9-27.9
					C200.3,123.6,209.3,111.3,226.3,111.3z M226.3,159.5c9.2,0,16.6-7.2,16.6-20.1c0-13-7.4-20.2-16.6-20.2s-16.6,7.2-16.6,20.2
					C209.6,152.2,217.1,159.5,226.3,159.5z M228.8,90.5h11.3l-13.5,14.8H220L228.8,90.5z"/>
				<path class="st6" d="M284,166h-9.4l-19.8-53.4h9.8l15,44.5h0.2l14.6-44.5h9.2L284,166z"/>
				<path class="st6" d="M318.2,103h-8.8V92.2h8.8V103z M309.5,112.6h8.8V166h-8.8V112.6z"/>
				<path class="st6" d="M329.8,92.2h8.8V166h-8.8V92.2z"/>
			</g>
		</g>
		<g>
			<g>
				<path class="st4" d="M396.3,319.1c-0.8-1-1.9-1.9-3-2.5c-1.2-0.6-2.5-1-4-1c-0.3,0-0.7,0-1.1,0c-0.4,0-0.8,0.1-1.2,0.2
					c-0.3,0-0.5,0.1-0.7,0.1c0-0.1,0-0.1,0-0.2c0-0.3-0.1-0.7-0.6-1c-0.8-0.5-1.8-0.5-2.8,0.2c-0.5,0.4-0.9,1-1,1.9
					c-0.5,2.5-1.1,5.4-1.7,8.6c-0.6,3.2-1.2,6.4-1.7,9.7c-0.5,3.3-1,6.5-1.4,9.5c-0.4,3-0.6,5.7-0.6,8c0,0.7,0,1.6,0.1,2.7
					c0.1,1.1,0.2,2.3,0.4,3.4c0.2,1.2,0.4,2.3,0.7,3.3c0.3,1,0.7,1.8,1.2,2.3c0.2,0.2,0.4,0.4,0.7,0.6c0.3,0.2,0.6,0.3,1,0.3
					c0.5,0,0.9-0.2,1.2-0.5c0.3-0.3,0.5-0.8,0.5-1.3c0-0.7-0.2-1.2-0.7-1.5l0,0c0-0.1-0.1-0.3-0.3-0.9c-0.1-0.7-0.3-1.6-0.4-2.6
					c-0.1-1-0.3-2.1-0.3-3.3c-0.1-1.2-0.1-2.3-0.1-3.3c0-0.8,0-1.6,0.1-2.6c0.1-0.9,0.2-1.9,0.3-2.9c0.1-1,0.3-2,0.5-3
					c0.2-0.9,0.4-1.7,0.6-2.5c0.2,0,0.3,0,0.4,0h0.7c2,0,3.9-0.3,5.8-1c1.9-0.7,3.6-1.6,5.1-2.9c1.5-1.2,2.7-2.8,3.6-4.6
					c0.9-1.8,1.4-3.8,1.4-6c0-1.3-0.2-2.6-0.7-3.9C397.8,321.3,397.1,320.1,396.3,319.1z M383.3,337.4c-0.5,0-0.8-0.2-0.8-0.8
					c0-0.1,0-0.3,0-0.4c0-0.2,0-0.3,0.1-0.5c0.1-0.5,0.2-1.3,0.4-2.3c0.2-1,0.3-2,0.5-3.1c0.2-1.1,0.4-2.3,0.6-3.5
					c0.2-1.2,0.4-2.3,0.7-3.3c0.2-1,0.5-1.9,0.7-2.6c0.3-0.9,0.5-1.1,0.6-1.2c0.1-0.1,0.3-0.2,1.2-0.4c0.7-0.1,1.4-0.2,2.1-0.2
					c0.9,0,1.7,0.2,2.4,0.5c0.7,0.4,1.3,0.9,1.7,1.5c0.4,0.6,0.8,1.3,1,2.1c0.2,0.8,0.3,1.6,0.3,2.5c0,1.6-0.3,3.2-0.9,4.6
					c-0.6,1.4-1.5,2.6-2.5,3.7c-1.1,1-2.3,1.8-3.7,2.4C386.4,337.1,384.9,337.4,383.3,337.4z"/>
				<path class="st4" d="M421.1,339.4c-0.8-0.9-1.5-1.8-1.9-2.9c-0.5-1-0.9-2.2-1.2-3.3c-0.3-1.2-0.5-2.4-0.6-3.6
					c-0.1-1.2-0.1-2.4-0.1-3.6l0.1-3.3c0-0.5-0.1-1-0.3-1.5c-0.2-0.4-0.5-0.8-1.4-0.8c-0.5,0-0.9,0.2-1.3,0.7
					c-0.3,0.4-0.5,0.9-0.7,1.4c-0.1,0.2-0.3,0.7-0.6,1.5c-0.3,0.8-0.8,1.7-1.3,2.7c-0.5,1-1.1,2.1-1.8,3.3c-0.7,1.1-1.3,2.2-2,3.1
					c-0.7,1-1.3,1.8-1.9,2.4c-0.7,0.7-1.1,0.9-1.4,0.9c-0.2,0-0.4-0.1-0.5-0.2c-0.2-0.2-0.3-0.4-0.3-0.7c-0.1-0.3-0.1-0.5-0.1-0.8
					c0-0.3,0-0.5,0-0.7c0-1.6,0.3-3.4,1-5.3c0.7-1.9,1.5-3.7,2.5-5.3c1-1.6,2-3,3.2-4.1c1.1-1.1,2.1-1.6,3.1-1.6
					c0.2,0,0.5,0.1,0.8,0.2c0.3,0.1,0.7,0.3,1,0.4c0.3,0.2,0.7,0.3,1,0.4c1.1,0.4,1.6,0,1.7-0.3c0.2-0.3,0.3-0.6,0.3-0.9
					c0-0.6-0.2-1.1-0.5-1.5c-0.3-0.4-0.8-0.7-1.3-1c-0.5-0.2-1-0.4-1.5-0.5c-0.5-0.1-1-0.2-1.3-0.2c-1.7,0-3.4,0.6-5,1.8
					c-1.6,1.2-3,2.7-4.3,4.6c-1.2,1.9-2.3,4-3,6.3c-0.8,2.3-1.2,4.6-1.2,6.9c0,0.7,0,1.4,0.1,2.2c0.1,0.7,0.3,1.4,0.6,2
					c0.3,0.6,0.7,1.1,1.3,1.5c0.6,0.4,1.3,0.6,2.3,0.6c1.1,0,2.1-0.3,3-1c0.9-0.7,1.8-1.5,2.6-2.5c0.8-1,1.6-2.1,2.3-3.3
					c0.5-0.9,1.1-1.8,1.5-2.6c0.1,0.9,0.3,1.8,0.5,2.6c0.3,1.2,0.6,2.3,1.1,3.3c0.4,1.1,1,2,1.7,2.9c0.7,0.9,1.5,1.6,2.6,2.1
					c0.2,0.1,0.3,0.2,0.5,0.2c0.2,0.1,0.4,0.1,0.6,0.1c0.3,0,0.6-0.1,0.8-0.2c0.2-0.1,0.5-0.4,0.5-0.8c0-0.3-0.1-0.6-0.3-0.9
					C421.5,339.8,421.3,339.6,421.1,339.4z"/>
				<path class="st4" d="M442.7,318.7c0.4-0.2,0.6-0.6,0.6-1.1c0-0.6-0.2-1.1-0.6-1.4c-0.4-0.3-0.8-0.6-1.3-0.8
					c-0.5-0.2-1-0.3-1.5-0.4c-0.5-0.1-0.9-0.1-1.2-0.1c-2,0-3.8,0.6-5.3,1.7c-1.3,1-2.6,2.3-3.9,3.9c0-0.2,0.1-0.5,0.1-0.7
					c0-0.4,0.1-0.7,0.1-1.1c0-0.4,0.1-0.6,0.1-0.8c0-0.5-0.1-1-0.4-1.4c-0.3-0.5-0.8-0.8-1.4-0.8c-0.6,0-1.1,0.2-1.6,0.6
					c-0.4,0.4-0.7,0.8-0.7,1.3c0,0.1,0,0.4-0.1,0.8c0,0.5-0.1,1.1-0.2,1.8c-0.1,0.7-0.2,1.6-0.3,2.5c-0.1,1-0.3,2-0.4,3
					c-0.2,0.9-0.3,2-0.5,3.2c-0.2,1.2-0.3,2.4-0.5,3.7c-0.2,1.3-0.3,2.5-0.4,3.6c-0.1,1.2-0.2,2.2-0.2,3.1c0,0.5,0.1,1.1,0.3,1.5
					c0.2,0.4,0.6,0.8,1.5,0.8c0.6,0,1.1-0.2,1.4-0.6c0.2-0.3,0.4-0.8,0.5-1.5c0.1-0.7,0.2-1.5,0.3-2.5c0.1-1,0.2-2,0.4-3.1
					c0.2-1.1,0.4-2.2,0.8-3.4c0.3-1.1,0.7-2.3,1.2-3.5c0.4-0.9,0.9-1.9,1.5-2.9c0.6-1,1.3-2,2.1-2.9c0.8-0.9,1.7-1.6,2.7-2.2
					c1-0.6,2-0.9,3.1-0.9c0.5,0,1,0.1,1.3,0.2C441,319,441.9,319.1,442.7,318.7z"/>
				<path class="st4" d="M462,339.4c-0.8-0.9-1.5-1.8-1.9-2.9c-0.5-1-0.9-2.2-1.2-3.3c-0.3-1.2-0.5-2.4-0.6-3.6
					c-0.1-1.2-0.1-2.4-0.1-3.6l0.1-3.3c0-0.5-0.1-1-0.3-1.5c-0.2-0.4-0.5-0.8-1.4-0.8c-0.5,0-0.9,0.2-1.3,0.7
					c-0.3,0.4-0.5,0.9-0.7,1.4c-0.1,0.2-0.3,0.7-0.6,1.5c-0.3,0.8-0.8,1.7-1.3,2.7c-0.5,1-1.1,2.1-1.8,3.3c-0.7,1.1-1.3,2.2-2,3.1
					c-0.7,1-1.3,1.8-1.9,2.4c-0.7,0.7-1.1,0.9-1.4,0.9c-0.2,0-0.4-0.1-0.5-0.2c-0.2-0.2-0.3-0.4-0.3-0.7c-0.1-0.3-0.1-0.5-0.1-0.8
					c0-0.3,0-0.5,0-0.7c0-1.6,0.3-3.4,1-5.3c0.7-1.9,1.5-3.7,2.5-5.3c1-1.6,2-3,3.2-4.1c1.1-1.1,2.1-1.6,3.1-1.6
					c0.2,0,0.5,0.1,0.8,0.2c0.3,0.1,0.7,0.3,1,0.4c0.3,0.2,0.7,0.3,1,0.4c1.1,0.4,1.6,0,1.7-0.3c0.2-0.3,0.3-0.6,0.3-0.9
					c0-0.6-0.2-1.1-0.5-1.5c-0.3-0.4-0.8-0.7-1.3-1c-0.5-0.2-1-0.4-1.5-0.5c-0.5-0.1-1-0.2-1.3-0.2c-1.7,0-3.4,0.6-5,1.8
					c-1.6,1.2-3,2.7-4.3,4.6c-1.2,1.9-2.3,4-3,6.3c-0.8,2.3-1.2,4.6-1.2,6.9c0,0.7,0,1.4,0.1,2.2c0.1,0.7,0.3,1.4,0.6,2
					c0.3,0.6,0.7,1.1,1.3,1.5c0.6,0.4,1.3,0.6,2.3,0.6c1.1,0,2.1-0.3,3-1c0.9-0.7,1.8-1.5,2.6-2.5c0.8-1,1.6-2.1,2.3-3.3
					c0.5-0.9,1.1-1.8,1.5-2.6c0.1,0.9,0.3,1.8,0.5,2.6c0.3,1.2,0.6,2.3,1.1,3.3c0.4,1.1,1,2,1.7,2.9c0.7,0.9,1.5,1.6,2.6,2.1
					c0.2,0.1,0.3,0.2,0.5,0.2c0.2,0.1,0.4,0.1,0.6,0.1c0.3,0,0.6-0.1,0.8-0.2c0.2-0.1,0.5-0.4,0.5-0.8c0-0.3-0.1-0.6-0.3-0.9
					C462.5,339.8,462.2,339.6,462,339.4z"/>
				<path class="st4" d="M492,317.3c0-0.5-0.2-0.9-0.5-1.2c-0.3-0.3-0.7-0.5-1.2-0.6c-0.5-0.1-1-0.2-1.5-0.3c-0.5-0.1-1-0.1-1.5-0.1
					c-1.2,0-2.5,0.2-3.8,0.5c-1.3,0.4-2.4,0.9-3.4,1.6c-1,0.7-1.8,1.6-2.5,2.7c-0.6,1.1-1,2.4-1,3.8c0,1.1,0.3,2,0.7,2.8
					c0.5,0.7,1.1,1.4,1.8,2c0.7,0.6,1.5,1.1,2.3,1.6c0.8,0.5,1.6,0.9,2.2,1.4c0.7,0.5,1.3,0.9,1.7,1.4c0.4,0.5,0.6,1,0.6,1.7
					c0,0.7-0.3,1.5-1,2.2c-0.7,0.8-1.5,1.4-2.5,2c-1,0.6-1.9,1.1-3,1.4c-1,0.3-1.8,0.5-2.3,0.5h-0.7c-0.5,0-1,0.1-1.5,0.4
					c-0.6,0.3-0.8,0.8-0.8,1.6c0,0.6,0.3,1.1,0.8,1.3c0.5,0.2,1,0.3,1.4,0.3c1.3,0,2.7-0.3,4.2-0.8c1.5-0.5,3-1.2,4.3-2.1
					c1.3-0.9,2.5-1.9,3.4-3.1c0.9-1.2,1.4-2.4,1.4-3.7c0-1.1-0.2-2.1-0.7-3c-0.5-0.8-1.1-1.5-1.8-2.1c-0.7-0.6-1.5-1.1-2.3-1.6
					c-0.8-0.5-1.6-1-2.3-1.4c-0.7-0.5-1.3-0.9-1.7-1.4c-0.4-0.5-0.6-1-0.6-1.6c0-0.8,0.2-1.5,0.6-2.1c0.4-0.6,1-1.2,1.6-1.6
					c0.6-0.4,1.4-0.7,2.2-1c0.8-0.2,1.5-0.3,2.2-0.3c0.5,0,1.1,0.1,1.7,0.2c0.7,0.2,1.2,0.2,1.7,0.2c0.3,0,0.5,0,0.7-0.1
					c0.4-0.2,0.7-0.5,0.9-0.8C491.9,318,492,317.6,492,317.3z"/>
				<path class="st4" d="M509,333.6c-0.2,0-0.5,0.1-0.8,0.2c-0.3,0.1-0.5,0.3-0.7,0.4c-1.3,1-2.7,1.8-4.1,2.3
					c-1.4,0.5-2.9,0.8-4.6,0.8c-1.3,0-2.1-0.3-2.6-0.8c-0.5-0.6-0.7-1.4-0.7-2.4c0-0.1,0-0.3,0-0.6c0-0.3,0-0.6,0.1-0.9
					c0-0.3,0.1-0.6,0.1-0.8c0-0.1,0-0.1,0-0.1c1.5,0,3-0.4,4.4-1.1c1.4-0.7,2.7-1.7,3.8-2.8c1.1-1.2,2-2.5,2.7-3.9
					c0.7-1.5,1-2.9,1-4.4c0-1.4-0.4-2.4-1.1-3c-0.7-0.6-1.7-0.9-2.7-0.9c-1,0-2.2,0.5-3.6,1.5c-1.4,0.9-2.7,2.3-4,3.9
					c-1.3,1.7-2.4,3.6-3.3,5.9c-0.9,2.3-1.3,4.7-1.3,7.3c0,2.2,0.6,3.9,1.7,5.1c1.1,1.2,2.8,1.8,5,1.8c1.8,0,3.5-0.3,5.2-0.9
					c1.7-0.6,3.2-1.5,4.6-2.5c0.4-0.3,0.7-0.6,1-0.9c0.2-0.3,0.5-0.6,0.6-0.9c0.2-0.3,0.3-0.7,0.3-1.1
					C509.9,333.7,509.3,333.6,509,333.6z M496.8,327.8c0.3-0.9,0.8-1.7,1.4-2.6c0.7-1,1.4-1.9,2.1-2.7c0.7-0.8,1.4-1.5,1.9-2.1
					c0.7-0.7,1-0.9,1-0.9c0.1-0.1,0.3-0.2,0.5-0.2c0.1,0,0.1,0.1,0.1,0.4c0,0.9-0.2,1.8-0.7,2.8c-0.5,1-1.1,1.9-1.9,2.6
					c-0.7,0.8-1.6,1.4-2.5,1.9C498.2,327.4,497.5,327.7,496.8,327.8z"/>
				<path class="st4" d="M547.9,312.8c-0.5,0.2-0.9,0.4-1.2,0.6c-1,0.8-2.1,1.8-3.3,3.2c-1.1,1.3-2.3,2.9-3.4,4.6
					c-0.7,1-1.4,2.1-2,3.2c-0.6,1.1-1.2,2.2-1.7,3.2c-0.5,1.1-1,2.1-1.4,3c-0.3,0.6-0.5,1.1-0.7,1.6c-0.4-2.3-0.7-4.7-1.1-7.3
					c-0.4-2.9-0.8-5.8-1.1-8.5c-0.1-0.6-0.3-1.2-0.6-1.7c-0.3-0.5-0.9-0.8-1.5-0.8c-0.6,0-1,0.2-1.3,0.7c-0.1,0.1-0.2,0.3-0.2,0.5
					c-0.2-0.1-0.4-0.1-0.7-0.2c-0.5-0.1-0.9-0.1-1.2-0.1c-2,0-3.8,0.6-5.3,1.7c-1.3,1-2.6,2.3-3.9,3.9c0-0.2,0.1-0.5,0.1-0.7
					c0-0.4,0.1-0.7,0.1-1.1c0-0.4,0.1-0.6,0.1-0.8c0-0.5-0.1-1-0.4-1.4c-0.3-0.5-0.8-0.8-1.4-0.8c-0.6,0-1.2,0.2-1.6,0.6
					c-0.4,0.4-0.7,0.8-0.7,1.3c0,0.1,0,0.4-0.1,0.8c0,0.5-0.1,1.1-0.2,1.8c-0.1,0.7-0.2,1.6-0.3,2.5c-0.1,1-0.3,2-0.4,3
					c-0.2,0.9-0.3,2-0.5,3.2c-0.2,1.2-0.3,2.4-0.5,3.7c-0.2,1.3-0.3,2.5-0.4,3.6c-0.1,1.2-0.1,2.2-0.1,3.1c0,0.5,0.1,1.1,0.3,1.5
					c0.2,0.4,0.6,0.8,1.5,0.8c0.6,0,1.1-0.2,1.4-0.6c0.2-0.3,0.4-0.8,0.5-1.5c0.1-0.7,0.2-1.5,0.3-2.5c0.1-1,0.2-2,0.4-3.1
					c0.2-1.1,0.4-2.2,0.8-3.4c0.3-1.1,0.7-2.3,1.2-3.5c0.4-0.9,0.9-1.9,1.5-2.9c0.6-1,1.3-2,2.1-2.9c0.8-0.9,1.7-1.6,2.7-2.2
					c1-0.6,2-0.9,3.1-0.9c0.5,0,1,0.1,1.3,0.2c0.1,0,0.2,0.1,0.3,0.1c0,0.3,0.1,0.7,0.1,1.1c0.2,1.8,0.4,3.8,0.7,5.9
					c0.3,2.2,0.6,4.5,0.9,7c0.3,2.4,0.7,4.7,1,6.8c0.1,0.3,0.2,0.7,0.5,1c0.2,0.4,0.6,0.5,1.2,0.5c0.5,0,0.9-0.1,1.3-0.3
					c0.4-0.2,0.8-0.7,1.1-1.5c0.8-2.3,1.8-4.8,3.1-7.3c1.2-2.5,2.6-5,4.2-7.4c1.1-1.7,2.3-3.3,3.5-4.8c1.2-1.5,2.6-2.8,3.9-4.1
					c0.2-0.2,0.4-0.5,0.6-0.7c0.3-0.3,0.4-0.7,0.4-1.1c0-0.5-0.2-0.9-0.5-1.1C549.7,312.4,548.8,312.4,547.9,312.8z"/>
				<path class="st4" d="M555.4,309.3c-0.7,0-1.3,0.3-1.8,0.9c-0.5,0.6-0.8,1.3-0.8,2.1c0,0.8,0.1,1.5,0.4,2.1
					c0.3,0.7,0.9,1,1.6,1.1l0,0c0.7,0,1.3-0.3,1.8-0.9c0.5-0.6,0.8-1.3,0.8-2.1c0-0.8-0.1-1.5-0.4-2.1
					C556.8,309.7,556.2,309.3,555.4,309.3z"/>
				<path class="st4" d="M554.7,319.2c-1.6,0-2,1-2,1.9v0.7c0,0.6-0.2,1.5-0.3,2.5c-0.2,1.1-0.4,2.3-0.6,3.6
					c-0.2,1.3-0.4,2.7-0.6,4.2c-0.2,1.5-0.3,2.9-0.3,4.4c0,0.4,0,1,0.1,1.7c0,0.7,0.1,1.3,0.3,2c0.2,0.7,0.4,1.2,0.7,1.7
					c0.4,0.5,0.8,0.8,1.4,0.8c0.2,0,0.5-0.1,0.8-0.2c0.4-0.2,0.5-0.5,0.5-0.9c0-0.3-0.1-0.7-0.2-1.1c-0.1-0.3-0.2-0.6-0.2-0.8
					c0-0.3,0-0.8,0.1-1.6c0.1-0.8,0.1-1.6,0.2-2.5c0.1-0.9,0.2-1.9,0.3-2.9c0.1-1,0.3-1.8,0.4-2.6l0.9-4c0.3-1.5,0.5-2.8,0.5-3.9
					C556.8,319.7,555.7,319.2,554.7,319.2z"/>
				<path class="st4" d="M594.2,317.2c0-0.4-0.1-0.7-0.4-1.1c-0.3-0.3-0.7-0.5-1.3-0.5h-5.5c0.6-2,1.3-4,1.9-6
					c0.7-2.1,1.3-4.3,2-6.4c0.1-0.4,0.2-0.7,0.2-1.1c0-0.5-0.2-1-0.5-1.4c-0.4-0.5-0.9-0.7-1.7-0.7c-0.6,0-1.1,0.2-1.4,0.6
					c-0.3,0.4-0.6,0.8-0.8,1.4c-0.8,2.3-1.5,4.6-2.2,7c-0.7,2.2-1.3,4.5-1.9,6.8c-0.9,0-1.7,0.1-2.5,0.1l-2.1,0.1
					c-0.1,0-0.2,0-0.4,0c-0.3-0.2-0.6-0.4-0.9-0.5c-0.5-0.2-1-0.3-1.5-0.4c-0.5-0.1-0.9-0.1-1.2-0.1c-2,0-3.8,0.6-5.3,1.7
					c-1.3,1-2.6,2.3-3.9,3.9c0-0.2,0.1-0.5,0.1-0.7c0-0.4,0.1-0.7,0.1-1.1c0-0.4,0.1-0.6,0.1-0.8c0-0.5-0.1-1-0.4-1.4
					c-0.3-0.5-0.8-0.8-1.4-0.8c-0.6,0-1.1,0.2-1.6,0.6c-0.4,0.4-0.7,0.8-0.7,1.3c0,0.1,0,0.4-0.1,0.8c0,0.5-0.1,1.1-0.2,1.8
					c-0.1,0.7-0.2,1.6-0.3,2.5c-0.1,1-0.3,2-0.4,3c-0.2,0.9-0.3,2-0.5,3.2c-0.2,1.2-0.3,2.4-0.5,3.7c-0.2,1.3-0.3,2.5-0.4,3.6
					c-0.1,1.2-0.1,2.2-0.1,3.1c0,0.5,0.1,1.1,0.3,1.5c0.2,0.4,0.6,0.8,1.5,0.8c0.6,0,1.1-0.2,1.4-0.6c0.2-0.3,0.4-0.8,0.5-1.5
					c0.1-0.7,0.2-1.5,0.3-2.5c0.1-1,0.2-2,0.4-3.1c0.2-1.1,0.4-2.2,0.8-3.4c0.3-1.1,0.7-2.3,1.2-3.5c0.4-0.9,0.9-1.9,1.5-2.9
					c0.6-1,1.3-2,2.1-2.9c0.8-0.9,1.7-1.6,2.7-2.2c1-0.6,2-0.9,3.1-0.9c0.2,0,0.4,0,0.6,0c0.2,0.2,0.4,0.4,0.8,0.4
					c0.6,0.1,1.4,0.2,2.2,0.2h3.7c-0.8,2.5-1.4,4.9-1.7,7.2c-0.3,2.5-0.5,4.7-0.5,6.7c0,2.5,0.2,4.6,0.5,6.2
					c0.3,1.6,0.5,2.5,0.6,2.8c0,0.1,0,0.1,0.2,0.5l0.4,0.8c0.1,0.3,0.3,0.7,0.5,1.1c0.2,0.4,0.5,0.7,0.8,1.1
					c0.5,0.5,0.9,0.8,1.3,0.8c0.9,0,1.1-0.4,1.2-0.8c0.1-0.5,0.1-0.7,0.1-0.8c0-0.3-0.1-0.7-0.2-1c-0.1-0.3-0.2-0.7-0.4-1
					c-0.3-0.9-0.6-2.1-0.9-3.4c-0.3-1.4-0.4-3-0.4-4.8v-1.1c0-0.4,0-0.8,0.1-1.2c0-0.7,0.1-1.6,0.3-2.9c0.2-1.3,0.4-2.6,0.6-4
					c0.3-1.4,0.5-2.7,0.8-3.9c0.3-1.1,0.5-1.9,0.8-2.3c0.2,0,0.5,0,0.7-0.1c0.2,0,0.5-0.1,0.8-0.1h5
					C593.9,319,594.2,318,594.2,317.2z"/>
				<path class="st4" d="M608.8,333.6c-0.2,0-0.5,0.1-0.8,0.2c-0.3,0.1-0.5,0.3-0.7,0.4c-1.3,1-2.7,1.8-4.1,2.3
					c-1.4,0.5-2.9,0.8-4.6,0.8c-1.3,0-2.1-0.3-2.6-0.8c-0.5-0.6-0.7-1.4-0.7-2.4c0-0.1,0-0.3,0-0.6c0-0.3,0-0.6,0.1-0.9
					c0-0.3,0.1-0.6,0.1-0.8c0-0.1,0-0.1,0.1-0.2c1.5,0,3-0.4,4.4-1.1c1.4-0.7,2.7-1.7,3.8-2.8c1.1-1.2,2-2.5,2.7-3.9
					c0.7-1.5,1-2.9,1-4.4c0-1.4-0.4-2.4-1.1-3c-0.7-0.6-1.7-0.9-2.7-0.9c-1,0-2.2,0.5-3.6,1.5c-1.4,0.9-2.7,2.3-4,3.9
					c-1.3,1.7-2.4,3.6-3.3,5.9c-0.9,2.3-1.3,4.7-1.3,7.3c0,2.2,0.6,3.9,1.7,5.1c1.1,1.2,2.8,1.8,5,1.8c1.8,0,3.5-0.3,5.2-0.9
					c1.7-0.6,3.2-1.5,4.6-2.5c0.4-0.3,0.7-0.6,1-0.9c0.2-0.3,0.5-0.6,0.6-0.9c0.2-0.3,0.3-0.7,0.3-1.1
					C609.7,333.7,609.1,333.6,608.8,333.6z M596.6,327.8c0.3-0.9,0.8-1.7,1.4-2.6c0.7-1,1.4-1.9,2.1-2.7c0.7-0.8,1.4-1.5,1.9-2.1
					c0.8-0.7,1-0.9,1-0.9c0.1-0.1,0.3-0.2,0.5-0.2c0.1,0,0.1,0.1,0.1,0.4c0,0.9-0.2,1.8-0.7,2.8c-0.5,1-1.1,1.9-1.9,2.6
					c-0.7,0.8-1.6,1.4-2.5,1.9C598,327.4,597.3,327.7,596.6,327.8z"/>
			</g>
		</g>
	</g>
</g>
</svg>
