<?xml version="1.0" encoding="utf-8"?>
<!-- Generator: Adobe Illustrator 19.2.1, SVG Export Plug-In . SVG Version: 6.00 Build 0)  -->
<svg version="1.1" id="Capa_1" xmlns="http://www.w3.org/2000/svg" xmlns:xlink="http://www.w3.org/1999/xlink" x="0px" y="0px"
	 viewBox="0 0 820 270" style="enable-background:new 0 0 820 270;" xml:space="preserve">
<style type="text/css">
	.st0{fill:#FFFFFF;}
	.st1{fill:#FCEA00;}
	.st2{fill:#681475;}
	.st3{fill:#F1F1F1;}
	.st4{fill:#1F1713;}
	.st5{fill:#C12610;}
	.st6{fill:#6E3885;}
</style>
<g>
	<g>
		<path class="st0" d="M227.9,143.2h24.7l-2.6,16.5h0.7c2.4-2.9,5-5.6,7.7-8c2.7-2.4,5.6-4.5,8.6-6.2c3.1-1.7,6.5-3,10.4-4
			c3.8-1,8.1-1.5,12.8-1.5c7.2,0,13.6,1.6,19.3,4.8c5.7,3.2,9.3,8.2,10.8,14.9c5.4-6.1,11.3-10.9,17.6-14.4
			c6.4-3.5,13.9-5.3,22.6-5.3c12.5,0,21.8,3.1,27.8,9.2c6,6.1,7.9,16.3,5.6,30.7L381,261.6h-26.1l10.9-69.2c0.7-4.7,1.3-9,1.6-12.9
			c0.3-3.9,0-7.3-1.1-10.1c-1-2.8-2.8-5-5.5-6.5c-2.7-1.5-6.5-2.3-11.5-2.3c-8.9,0-15.7,2.7-20.5,8.2c-4.8,5.5-8,13.3-9.6,23.4
			l-10.9,69.4h-26.1l11.9-76c1.3-8.2,0.8-14.5-1.5-18.7c-2.3-4.2-7.4-6.3-15.4-6.3c-3.4,0-6.7,0.7-10.1,2.1c-3.3,1.4-6.4,3.4-9.2,6
			c-2.8,2.6-5.2,5.8-7.2,9.6c-2.1,3.8-3.5,8.2-4.2,13.1l-11,70.3h-26.1L227.9,143.2z"/>
		<path class="st0" d="M437.1,209.2c-0.7,4.6-0.8,9-0.1,13.3c0.6,4.3,2,8,4.1,11.2c2.1,3.2,5,5.8,8.6,7.7c3.7,1.9,8.3,2.9,13.8,2.9
			c7.6,0,14-1.6,19.2-4.9c5.2-3.3,9.4-8.2,12.7-14.8h24.7c-2.4,6.4-5.7,12.1-9.8,17.2c-4.2,5-8.9,9.3-14.1,12.7
			c-5.3,3.4-11,6-17.1,7.8c-6.2,1.8-12.4,2.6-18.8,2.6c-9.3,0-17.3-1.5-24-4.6c-6.7-3.1-12.1-7.3-16.2-12.8
			c-4.1-5.5-6.8-12.1-8.1-19.7c-1.3-7.6-1.3-16,0.2-25.2c1.3-8.4,3.9-16.4,7.8-23.9c3.9-7.6,8.7-14.2,14.6-19.9
			c5.9-5.7,12.6-10.3,20.1-13.6c7.5-3.4,15.8-5,24.6-5c9.3,0,17.4,1.9,24.2,5.8c6.8,3.9,12.1,9,16,15.5c3.9,6.4,6.3,13.8,7.2,22.1
			c0.9,8.3,0.1,16.9-2.3,25.8H437.1z M500.8,192c0.3-4.1,0.1-8.1-0.8-11.9c-0.9-3.8-2.3-7.1-4.4-10c-2.1-2.8-4.8-5.1-8.1-6.9
			c-3.3-1.8-7.2-2.6-11.6-2.6c-4.6,0-8.9,0.8-12.9,2.4c-4,1.6-7.5,3.8-10.7,6.6c-3.1,2.8-5.8,6.1-8,10c-2.2,3.8-3.7,7.9-4.6,12.4
			H500.8z"/>
		<path class="st0" d="M542.5,143.2h19.7l5.6-35.5h26.1l-5.6,35.5h23.6l-3.1,19.5h-23.6l-9.9,63.2c-0.4,2.7-0.7,5.1-0.8,7.1
			c-0.1,2,0.2,3.7,0.8,5c0.6,1.4,1.7,2.4,3.3,3.1c1.6,0.7,3.8,1,6.7,1c1.8,0,3.7,0,5.5-0.1c1.8-0.1,3.7-0.3,5.6-0.8l-3.2,20.2
			c-3,0.3-5.8,0.6-8.6,0.9c-2.8,0.3-5.6,0.5-8.5,0.5c-6.9,0-12.3-0.7-16.3-1.9c-4-1.3-7-3.2-8.9-5.7c-2-2.5-3.1-5.7-3.3-9.5
			c-0.2-3.8-0.1-8.2,0.6-13.1l11-69.9h-19.7L542.5,143.2z"/>
		<path class="st0" d="M630.7,143.2h24.5l-3.6,22.9h0.5c1.3-3.2,3.2-6.3,5.9-9.4c2.7-3.1,5.8-5.8,9.3-8.4c3.5-2.5,7.3-4.5,11.4-6.1
			c4.1-1.5,8.1-2.3,12-2.3c3.1,0,5.1,0.1,6.3,0.2c1.1,0.2,2.3,0.3,3.5,0.5l-4,25.2c-1.8-0.3-3.6-0.6-5.5-0.8
			c-1.9-0.2-3.7-0.3-5.6-0.3c-4.4,0-8.7,0.9-12.9,2.6c-4.2,1.8-8,4.4-11.4,7.8c-3.4,3.4-6.4,7.7-8.9,12.7c-2.5,5-4.2,10.8-5.3,17.4
			l-8.9,56.3h-26.1L630.7,143.2z"/>
		<path class="st0" d="M742.4,264.9c-9.5,0-17.7-1.6-24.6-4.7c-6.9-3.1-12.5-7.4-16.7-12.9c-4.3-5.5-7.1-12.1-8.6-19.7
			c-1.5-7.6-1.5-16,0-25.2c1.4-9,4.1-17.3,7.9-25c3.9-7.6,8.8-14.2,14.8-19.7c6-5.5,12.9-9.8,20.8-12.9c7.9-3.1,16.6-4.7,26-4.7
			c9.5,0,17.7,1.6,24.6,4.7c6.9,3.1,12.5,7.4,16.7,12.9c4.3,5.5,7.1,12.1,8.6,19.7c1.5,7.6,1.5,16,0.1,25c-1.4,9.2-4.1,17.6-8,25.2
			c-3.9,7.6-8.8,14.2-14.8,19.7c-6,5.5-12.9,9.8-20.8,12.9C760.5,263.3,751.9,264.9,742.4,264.9z M745.6,244.2
			c5.8,0,11-1.2,15.7-3.7c4.7-2.4,8.7-5.6,12-9.6c3.4-4,6.1-8.4,8.2-13.4c2.1-5,3.5-10,4.3-15.2c0.8-5,0.9-10.1,0.4-15.1
			c-0.5-5-1.8-9.5-4-13.4c-2.1-3.9-5.2-7.1-9-9.5c-3.9-2.4-8.7-3.7-14.5-3.7c-5.8,0-11,1.2-15.7,3.7c-4.7,2.4-8.7,5.6-12,9.5
			c-3.4,3.9-6.1,8.4-8.2,13.4c-2.1,5-3.5,10.1-4.3,15.1c-0.8,5.2-1,10.3-0.4,15.2c0.5,5,1.8,9.4,4,13.4c2.1,4,5.1,7.2,9,9.6
			C735,243,739.8,244.2,745.6,244.2z"/>
	</g>
	<g>
		<path class="st0" d="M285.8,7.5c17.1,0.4,29.2,5.2,36.5,14.4c7.2,9.2,9.4,23.2,6.4,41.9c-2.9,18.7-9.5,32.7-19.6,41.9
			c-10.1,9.2-23.8,14-41,14.4h-39L246.8,7.5H285.8z M264.2,111c8.1,0,15.2-0.9,21.3-2.6c6.1-1.7,11.4-4.5,15.7-8.3
			c4.4-3.8,7.9-8.7,10.7-14.7c2.7-6,4.8-13.2,6.1-21.6c1.3-8.4,1.6-15.6,0.7-21.6c-0.8-6-2.9-10.9-6.1-14.7
			c-3.2-3.8-7.6-6.5-13.1-8.3c-5.6-1.7-12.4-2.6-20.5-2.6h-22.9L241.3,111H264.2z"/>
		<path class="st0" d="M348.1,51.4c2.2-3.5,5-6.3,8.2-8.5c3.2-2.2,6.9-3.8,10.9-4.9c4.1-1.1,8.5-1.6,13.2-1.6c3.6,0,7.1,0.3,10.6,1
			c3.5,0.7,6.5,2,9,3.9c2.5,1.9,4.4,4.5,5.7,8c1.2,3.4,1.4,7.9,0.6,13.3l-6.8,43.2c-0.6,4,1,6,4.9,6c1.2,0,2.2-0.2,3.3-0.6l-1.3,8.4
			c-1.2,0.2-2.2,0.4-3.2,0.5c-0.9,0.1-2,0.2-3.4,0.2c-2.5,0-4.5-0.3-5.9-1c-1.4-0.7-2.4-1.7-3.1-2.9c-0.6-1.3-1-2.8-0.9-4.5
			c0-1.7,0.2-3.7,0.5-5.8H390c-2.2,2.6-4.4,5-6.5,7s-4.5,3.8-7,5.1c-2.5,1.4-5.2,2.4-8.2,3.2c-3,0.7-6.5,1.1-10.5,1.1
			c-3.8,0-7.3-0.4-10.4-1.3c-3.2-0.9-5.8-2.3-8-4.3c-2.2-1.9-3.7-4.4-4.7-7.4c-1-3-1.1-6.5-0.5-10.6c0.9-5.7,2.9-10.1,5.9-13.3
			c3-3.2,6.8-5.7,11.2-7.3c4.4-1.7,9.3-2.9,14.6-3.5c5.3-0.7,10.7-1.3,16.2-2c2.1-0.2,4-0.5,5.6-0.8c1.6-0.3,3-0.9,4.2-1.7
			c1.2-0.8,2.2-1.9,3-3.2c0.8-1.4,1.4-3.2,1.7-5.4c0.5-3.4,0.4-6.1-0.4-8.3c-0.8-2.2-2-3.9-3.8-5.1c-1.7-1.3-3.9-2.1-6.4-2.6
			c-2.5-0.5-5.2-0.7-8.2-0.7c-6.3,0-11.7,1.5-16.2,4.5c-4.5,3-7.3,7.8-8.6,14.4h-9.9C344.3,58.9,345.9,54.8,348.1,51.4z M394,75.7
			c-0.8,1.2-2.2,2-4,2.5c-1.9,0.5-3.5,0.9-4.9,1.1c-4.3,0.7-8.8,1.4-13.3,2c-4.6,0.6-8.8,1.4-12.6,2.6c-3.9,1.2-7.1,2.8-9.9,5
			c-2.7,2.2-4.4,5.2-5,9.2c-0.4,2.5-0.2,4.8,0.4,6.7c0.7,1.9,1.8,3.6,3.2,5.1c1.5,1.4,3.2,2.5,5.3,3.2c2.1,0.7,4.3,1.1,6.6,1.1
			c3.8,0,7.5-0.6,11.2-1.7c3.6-1.2,6.9-2.8,9.9-5c2.9-2.2,5.4-4.9,7.4-8c2-3.2,3.3-6.7,4-10.7l2-12.9H394z"/>
		<path class="st0" d="M462.3,38.7l-1.3,8.4h-16.6l-8.6,54.9c-0.5,3.3-0.5,5.8,0.1,7.7c0.6,1.8,2.7,2.9,6.2,3.1
			c2.8,0,5.7-0.2,8.6-0.5l-1.3,8.4c-1.5,0-3,0.1-4.4,0.2c-1.5,0.1-3,0.2-4.4,0.2c-6.6,0-11.1-1.3-13.3-3.9
			c-2.2-2.6-2.7-7.3-1.5-14.3l8.8-55.7h-14.2l1.3-8.4h14.2l3.8-24.5h9.9l-3.8,24.5H462.3z"/>
		<path class="st0" d="M527.3,39.8c4.4,2.3,8,5.4,10.6,9.3c2.6,3.9,4.4,8.4,5.3,13.6c0.9,5.2,0.8,10.8-0.1,16.6
			c-0.9,5.9-2.6,11.4-5.1,16.6c-2.5,5.2-5.7,9.8-9.6,13.6c-3.9,3.9-8.4,7-13.5,9.2c-5.1,2.3-10.8,3.4-17,3.4c-6.2,0-11.5-1.1-16-3.4
			c-4.4-2.3-8-5.3-10.6-9.2c-2.7-3.9-4.4-8.4-5.3-13.6c-0.9-5.2-0.8-10.8,0.1-16.6c0.9-5.9,2.6-11.4,5.1-16.6
			c2.5-5.2,5.7-9.8,9.6-13.6c3.9-3.9,8.4-7,13.5-9.3c5.1-2.3,10.8-3.5,17-3.5C517.6,36.4,522.9,37.5,527.3,39.8z M497.1,47.7
			c-3.9,2-7.3,4.6-10.2,7.9c-2.9,3.3-5.3,7-7.1,11.1c-1.9,4.2-3.1,8.4-3.8,12.7c-0.7,4.3-0.7,8.5-0.2,12.7c0.6,4.2,1.8,7.9,3.6,11.1
			c1.9,3.3,4.4,5.9,7.7,7.9c3.3,2,7.3,3,12,3s9-1,12.9-3c3.9-2,7.3-4.6,10.2-7.9c2.9-3.3,5.2-7,7.1-11.1c1.9-4.2,3.1-8.4,3.8-12.7
			c0.7-4.3,0.7-8.5,0.2-12.7c-0.6-4.2-1.8-7.9-3.6-11.1c-1.9-3.3-4.4-5.9-7.7-7.9c-3.3-2-7.3-3-12-3S501,45.7,497.1,47.7z
			 M503.5,27.4l20.1-22.2h12.3l-24.3,22.2H503.5z"/>
	</g>
	<path class="st0" d="M187.7,140.1h-80.5c-4.6,0-8.3-3.7-8.3-8.3c0-4.6,3.7-8.3,8.3-8.3h80.5c4.6,0,8.3,3.7,8.3,8.3
		C196,136.4,192.3,140.1,187.7,140.1z"/>
	<path class="st0" d="M244,43.1h-80.5c-4.6,0-8.3-3.7-8.3-8.3s3.7-8.3,8.3-8.3H244c4.6,0,8.3,3.7,8.3,8.3S248.6,43.1,244,43.1z"/>
	<path class="st0" d="M240.2,188.6h-225c-4.6,0-8.3-3.7-8.3-8.3c0-4.6,3.7-8.3,8.3-8.3h225c4.6,0,8.3,3.7,8.3,8.3
		C248.5,184.9,244.8,188.6,240.2,188.6z"/>
	<path class="st0" d="M221.5,237.1h-82.6c-4.6,0-8.3-3.7-8.3-8.3c0-4.6,3.7-8.3,8.3-8.3h82.6c4.6,0,8.3,3.7,8.3,8.3
		C229.7,233.4,226,237.1,221.5,237.1z"/>
	<path class="st0" d="M236.2,91.6H195c-4.6,0-8.3-3.7-8.3-8.3c0-4.6,3.7-8.3,8.3-8.3h41.3c4.6,0,8.3,3.7,8.3,8.3
		C244.5,87.9,240.8,91.6,236.2,91.6z"/>
	<path class="st0" d="M127.8,91.6H86.6c-4.6,0-8.3-3.7-8.3-8.3c0-4.6,3.7-8.3,8.3-8.3h41.3c4.6,0,8.3,3.7,8.3,8.3
		C136.1,87.9,132.4,91.6,127.8,91.6z"/>
	<path class="st0" d="M86.6,237.1H45.3c-4.6,0-8.3-3.7-8.3-8.3c0-4.6,3.7-8.3,8.3-8.3h41.3c4.6,0,8.3,3.7,8.3,8.3
		C94.8,233.4,91.1,237.1,86.6,237.1z"/>
</g>
</svg>
