<?xml version="1.0" encoding="utf-8"?>
<!-- Generator: Adobe Illustrator 19.2.1, SVG Export Plug-In . SVG Version: 6.00 Build 0)  -->
<svg version="1.1" id="Capa_1" xmlns="http://www.w3.org/2000/svg" xmlns:xlink="http://www.w3.org/1999/xlink" x="0px" y="0px"
	 viewBox="0 0 170 170" style="enable-background:new 0 0 170 170;" xml:space="preserve">
<style type="text/css">
	.st0{fill:#FFFFFF;}
	.st1{fill:#FCEA00;}
	.st2{fill:#681475;}
	.st3{fill:#F1F1F1;}
	.st4{fill:#1F1713;}
	.st5{fill:#C12610;}
	.st6{fill:#6E3885;}
</style>
<g>
	<g>
		<g>
			<circle class="st1" cx="85" cy="85" r="75.3"/>
			<path class="st3" d="M85,9.7c41.6,0,75.3,33.7,75.3,75.3c0,41.6-33.7,75.3-75.3,75.3S9.7,126.6,9.7,85C9.7,43.4,43.4,9.7,85,9.7
				 M85,4.5C40.6,4.5,4.5,40.6,4.5,85s36.1,80.5,80.5,80.5s80.5-36.1,80.5-80.5S129.4,4.5,85,4.5L85,4.5z"/>
		</g>
	</g>
	<g>
		<path class="st2" d="M125.2,88.2l-62,29.6c-1.7,0.8-3.6-0.4-3.6-2.2v-61c0-1.9,2-3.1,3.6-2.2l62,31.4
			C127.1,84.6,127,87.3,125.2,88.2z"/>
	</g>
</g>
</svg>
