<?xml version="1.0" encoding="utf-8"?>
<!-- Generator: Adobe Illustrator 19.2.1, SVG Export Plug-In . SVG Version: 6.00 Build 0)  -->
<svg version="1.1" id="Capa_1" xmlns="http://www.w3.org/2000/svg" xmlns:xlink="http://www.w3.org/1999/xlink" x="0px" y="0px"
	 viewBox="0 0 170 170" style="enable-background:new 0 0 170 170;" xml:space="preserve">
<style type="text/css">
	.st0{fill:#FFFFFF;}
	.st1{fill:#FCEA00;}
	.st2{fill:#681475;}
	.st3{fill:#F1F1F1;}
	.st4{fill:#1F1713;}
	.st5{fill:#C12610;}
	.st6{fill:#6E3885;}
</style>
<g>
	<g>
		<circle class="st1" cx="85" cy="85" r="75.3"/>
		<path class="st3" d="M85,9.7c41.6,0,75.3,33.7,75.3,75.3c0,41.6-33.7,75.3-75.3,75.3S9.7,126.6,9.7,85C9.7,43.4,43.4,9.7,85,9.7
			 M85,4.5C40.6,4.5,4.5,40.6,4.5,85s36.1,80.5,80.5,80.5s80.5-36.1,80.5-80.5S129.4,4.5,85,4.5L85,4.5z"/>
	</g>
	<g>
		<path class="st2" d="M124.3,56c-0.5-0.4-1.2-0.6-1.9-0.6H47.6c-0.7,0-1.4,0.2-1.9,0.6c-0.5,0.4-0.8,1-0.8,1.8v7.6
			c0,0.4,0.2,0.6,0.5,0.6l39.3,20.4l0.3,0.1c0.2,0,0.4,0,0.5-0.1l38-20.4c0.2-0.1,0.4-0.1,0.5-0.1c0.1,0,0.3,0,0.5-0.1
			c0.4,0,0.6-0.2,0.6-0.6v-7.3C125.1,57.1,124.8,56.5,124.3,56z"/>
		<path class="st2" d="M68.7,86c0.1-0.1,0.2-0.2,0.2-0.4c0-0.3-0.1-0.4-0.3-0.4L46,73.4c-0.3-0.1-0.6-0.1-0.8,0
			c-0.2,0-0.3,0.1-0.3,0.4v30.9c0,0.3,0.2,0.5,0.5,0.6h0.3c0.2,0,0.3,0,0.3-0.1L68.7,86z"/>
		<path class="st2" d="M96.2,88.3c-0.1-0.3-0.4-0.3-0.8-0.1l-8.7,4.6c-1.1,0.6-2.2,0.6-3.3,0l-7.6-3.9c-0.3-0.2-0.6-0.2-0.8,0
			l-28.9,24.4c-0.1,0.1-0.2,0.3-0.2,0.6c0,0.1,0.1,0.2,0.3,0.4c0.6,0.2,1.1,0.3,1.3,0.3h74c0.2,0,0.4-0.1,0.6-0.3
			c0-0.4-0.1-0.6-0.2-0.7L96.2,88.3z"/>
		<path class="st2" d="M124.6,72.8H124l-21.5,11.6c-0.2,0-0.3,0.1-0.3,0.4c-0.1,0.1-0.1,0.2,0.2,0.4l21.5,21.1
			c0.2,0.2,0.4,0.3,0.5,0.3h0.3c0.3-0.3,0.5-0.5,0.5-0.6V73.4C125.1,73.2,124.9,73,124.6,72.8z"/>
	</g>
</g>
</svg>
