<?xml version="1.0" encoding="utf-8"?>
<!-- Generator: Adobe Illustrator 19.2.1, SVG Export Plug-In . SVG Version: 6.00 Build 0)  -->
<svg version="1.1" id="Capa_1" xmlns="http://www.w3.org/2000/svg" xmlns:xlink="http://www.w3.org/1999/xlink" x="0px" y="0px"
	 viewBox="0 0 170 170" style="enable-background:new 0 0 170 170;" xml:space="preserve">
<style type="text/css">
	.st0{fill:#FFFFFF;}
	.st1{fill:#FCEA00;}
	.st2{fill:#681475;}
	.st3{fill:#F1F1F1;}
	.st4{fill:#1F1713;}
	.st5{fill:#C12610;}
	.st6{fill:#6E3885;}
</style>
<g>
	<g>
		<circle class="st1" cx="85" cy="85" r="75.3"/>
		<path class="st3" d="M85,9.7c41.6,0,75.3,33.7,75.3,75.3c0,41.6-33.7,75.3-75.3,75.3c-41.6,0-75.3-33.7-75.3-75.3
			C9.7,43.4,43.4,9.7,85,9.7 M85,4.5C40.6,4.5,4.5,40.6,4.5,85s36.1,80.5,80.5,80.5s80.5-36.1,80.5-80.5S129.4,4.5,85,4.5L85,4.5z"
			/>
	</g>
	<g>
		<path class="st2" d="M50.1,115.8h15.2V63.1H50.1V115.8z M101.4,63.1c-1.6,0-3.2,0-4.6,0.1c1.6-3.3,2.1-9.3,2.1-12.9
			c0-3.3-2.8-5.9-6.3-5.9c-3.1,0-5.6,2-6.2,4.7c-0.9,3.1-3.3,14-11,17.9c-1.7,0.4-3.4,0.8-5.2,1.2v41.6c6.9,2.2,10.6,6,25.1,6
			c20.6,0,24.7-16,24.7-26.4C119.9,79,122,63.1,101.4,63.1z"/>
	</g>
</g>
</svg>
