<?xml version="1.0" encoding="utf-8"?>
<!-- Generator: Adobe Illustrator 19.2.1, SVG Export Plug-In . SVG Version: 6.00 Build 0)  -->
<svg version="1.1" id="Capa_1" xmlns="http://www.w3.org/2000/svg" xmlns:xlink="http://www.w3.org/1999/xlink" x="0px" y="0px"
	 viewBox="0 0 170 170" style="enable-background:new 0 0 170 170;" xml:space="preserve">
<style type="text/css">
	.st0{fill:#FFFFFF;}
	.st1{fill:#FCEA00;}
	.st2{fill:#681475;}
	.st3{fill:#F1F1F1;}
	.st4{fill:#1F1713;}
	.st5{fill:#C12610;}
	.st6{fill:#6E3885;}
</style>
<g>
	<g>
		<g>
			<circle class="st1" cx="85" cy="85" r="75.3"/>
			<path class="st3" d="M85,9.7c41.6,0,75.3,33.7,75.3,75.3c0,41.6-33.7,75.3-75.3,75.3S9.7,126.6,9.7,85C9.7,43.4,43.4,9.7,85,9.7
				 M85,4.5C40.6,4.5,4.5,40.6,4.5,85s36.1,80.5,80.5,80.5s80.5-36.1,80.5-80.5S129.4,4.5,85,4.5L85,4.5z"/>
		</g>
	</g>
	<path class="st2" d="M121.1,84.2c-2.2-2.6-5.8-2.9-8.4-0.7l-21,18.1V54.6c0-3.4-3.6-6.1-7-6.1c-3.4,0-7,2.7-7,6.1v46.9L57.2,83.5
		c-2.6-2.2-6.1-1.9-8.3,0.7c-2.2,2.6-1.7,6.4,0.9,8.6L81,119.4c0.9,0.8,2.1,1.2,3.2,1.4c0.2,0,0.5,1.4,0.7,1.4c0,0,0.1,1.3,0.1,1.3
		c0,0,0,0,0,0c0,0,0,0,0,0c0,0,0,0,0,0c0,0,0,0,0,0c0,0,0.1-1.3,0.1-1.3c0.2,0,0.4-0.7,0.7-0.7c1.1-0.1,2.2-0.9,3.2-1.7l31.2-26.8
		C123,90.7,123.3,86.7,121.1,84.2z"/>
</g>
</svg>
