<?xml version="1.0" encoding="utf-8"?>
<!-- Generator: Adobe Illustrator 19.2.1, SVG Export Plug-In . SVG Version: 6.00 Build 0)  -->
<svg version="1.1" id="Capa_1" xmlns="http://www.w3.org/2000/svg" xmlns:xlink="http://www.w3.org/1999/xlink" x="0px" y="0px"
	 viewBox="0 0 170 170" style="enable-background:new 0 0 170 170;" xml:space="preserve">
<style type="text/css">
	.st0{fill:#FFFFFF;}
	.st1{fill:#FCEA00;}
	.st2{fill:#681475;}
	.st3{fill:#F1F1F1;}
	.st4{fill:#1F1713;}
	.st5{fill:#C12610;}
	.st6{fill:#6E3885;}
</style>
<g>
	<g>
		<circle class="st1" cx="85" cy="85" r="75.3"/>
		<path class="st3" d="M85,9.7c41.6,0,75.3,33.7,75.3,75.3c0,41.6-33.7,75.3-75.3,75.3S9.7,126.6,9.7,85C9.7,43.4,43.4,9.7,85,9.7
			 M85,4.5C40.6,4.5,4.5,40.6,4.5,85s36.1,80.5,80.5,80.5s80.5-36.1,80.5-80.5S129.4,4.5,85,4.5L85,4.5z"/>
	</g>
	<g>
		<g>
			<path class="st2" d="M66,55.4L66,55.4c2-3.8,4.4-7,7.1-9.4c-6,1.8-11.5,5-16.1,9.4H66z"/>
			<path class="st2" d="M60.3,73.5L60.3,73.5c0.8-5.4,2.3-10.4,4.2-14.9h-0.1H53.9c-3.7,4.3-6.5,9.4-8.1,14.9H60.3z"/>
			<path class="st2" d="M124.9,76.7h-14.7h0c0.3,2.7,0.5,5.5,0.5,8.3c0,2.2-0.1,4.4-0.3,6.6h0h14.9c0.4-2.2,0.6-4.4,0.6-6.6
				C125.8,82.2,125.4,79.4,124.9,76.7"/>
			<path class="st2" d="M59.7,91.6c-0.2-2.2-0.3-4.4-0.3-6.6c0-2.8,0.2-5.6,0.5-8.3h-0.1H45.1c-0.6,2.7-0.8,5.5-0.8,8.3
				c0,2.2,0.2,4.4,0.5,6.6H59.7L59.7,91.6z"/>
			<path class="st2" d="M104,55.4L104,55.4h9.1c-4.6-4.4-10.1-7.5-16.1-9.4C99.5,48.4,101.9,51.6,104,55.4"/>
			<path class="st2" d="M105.6,58.6h-0.1c1.9,4.5,3.4,9.5,4.2,14.9h0h14.4c-1.6-5.4-4.3-10.5-8.1-14.9H105.6z"/>
			<path class="st2" d="M104.8,112.9L104.8,112.9c-2.2,4.7-4.9,8.4-8,11.1c6.8-2,12.9-5.8,17.8-11.1H104.8z"/>
			<path class="st2" d="M110,94.8L110,94.8c-0.7,5.3-2,10.4-3.8,14.9h0.1h11.1c3.4-4.4,5.8-9.5,7.2-14.9H110z"/>
			<path class="st2" d="M73.1,124c-3-2.7-5.7-6.4-7.9-11.1h-0.1h-9.9C60.2,118.1,66.4,121.9,73.1,124"/>
			<path class="st2" d="M63.7,109.7L63.7,109.7c-1.7-4.5-3-9.6-3.7-14.9h0H45.4c1.3,5.4,3.8,10.5,7.1,14.9H63.7z"/>
			<path class="st2" d="M83.4,91.6V76.7H63.1c-0.3,2.7-0.5,5.5-0.5,8.3c0,2.2,0.1,4.4,0.3,6.6H83.4z"/>
			<path class="st2" d="M83.4,73.5V58.6H68c-2.1,4.4-3.6,9.4-4.5,14.9H83.4z"/>
			<path class="st2" d="M107.3,85c0-2.8-0.1-5.6-0.4-8.3H86.6v14.9H107C107.2,89.4,107.3,87.2,107.3,85"/>
			<path class="st2" d="M83.4,109.7V94.8H63.3c0.7,5.4,2.1,10.5,4,14.9H83.4z"/>
			<path class="st2" d="M86.6,58.6v14.9h19.9c-0.9-5.4-2.4-10.5-4.5-14.9H86.6z"/>
			<path class="st2" d="M86.6,44.4v11h13.7C96.5,48.9,91.7,45,86.6,44.4"/>
			<path class="st2" d="M83.4,125.6v-12.7H68.8C72.6,120.4,77.8,124.9,83.4,125.6"/>
			<path class="st2" d="M101.2,112.9H86.6v12.7C92.1,124.9,97.3,120.4,101.2,112.9"/>
			<path class="st2" d="M69.7,55.4h13.7v-11C78.3,45,73.4,48.9,69.7,55.4"/>
			<path class="st2" d="M86.6,94.8v14.9h16.1c1.9-4.4,3.3-9.5,4-14.9H86.6z"/>
		</g>
	</g>
</g>
</svg>
