<?xml version="1.0" encoding="utf-8"?>
<!-- Generator: Adobe Illustrator 19.2.1, SVG Export Plug-In . SVG Version: 6.00 Build 0)  -->
<svg version="1.1" id="Capa_1" xmlns="http://www.w3.org/2000/svg" xmlns:xlink="http://www.w3.org/1999/xlink" x="0px" y="0px"
	 viewBox="0 0 170 170" style="enable-background:new 0 0 170 170;" xml:space="preserve">
<style type="text/css">
	.st0{fill:#FFFFFF;}
	.st1{fill:#FCEA00;}
	.st2{fill:#681475;}
	.st3{fill:#F1F1F1;}
	.st4{fill:#1F1713;}
	.st5{fill:#C12610;}
	.st6{fill:#6E3885;}
</style>
<g>
	<g>
		<circle class="st1" cx="85" cy="85" r="75.3"/>
		<path class="st3" d="M85,9.7c41.6,0,75.3,33.7,75.3,75.3c0,41.6-33.7,75.3-75.3,75.3c-41.6,0-75.3-33.7-75.3-75.3
			C9.7,43.4,43.4,9.7,85,9.7 M85,4.5C40.6,4.5,4.5,40.6,4.5,85s36.1,80.5,80.5,80.5s80.5-36.1,80.5-80.5S129.4,4.5,85,4.5L85,4.5z"
			/>
	</g>
	<g>
		<path class="st2" d="M120.2,66.5l-7.3,0v25.8c0,4.5-3.7,8.2-8.2,8.2l-24.9,0.1v1.7c0,2.8,2.3,5.1,5.1,5.1l17.6,0.1l10.3,11.4
			v-11.4h7.3c2.8,0,5.1-2.3,5.1-5.1V71.6C125.3,68.8,123,66.5,120.2,66.5z"/>
		<path class="st2" d="M108.3,88.9V58.4c0-3.9-3.2-7.1-7.1-7.1l-49.4,0.1c-3.9,0-7.1,3.2-7.1,7.1V89c0,3.9,3.2,7.1,7.1,7.1H62v15.9
			l14.5-15.9l24.7-0.1C105.1,96,108.3,92.9,108.3,88.9z"/>
	</g>
</g>
</svg>
